<?xml version="1.0" encoding="UTF-8" standalone="no"?>
<!DOCTYPE svg PUBLIC "-//W3C//DTD SVG 1.1//EN"
 "http://www.w3.org/Graphics/SVG/1.1/DTD/svg11.dtd">
<!-- Generated by graphviz version 2.43.0 (0)
 -->
<!-- Title: %3 Pages: 1 -->
<svg width="1324pt" height="1565pt"
 viewBox="0.00 0.00 1324.00 1565.00" xmlns="http://www.w3.org/2000/svg" xmlns:xlink="http://www.w3.org/1999/xlink">
<g id="graph0" class="graph" transform="scale(1 1) rotate(0) translate(4 1561)">
<title>%3</title>
<polygon fill="white" stroke="transparent" points="-4,4 -4,-1561 1320,-1561 1320,4 -4,4"/>
<!-- n0 -->
<g id="node1" class="node">
<title>n0</title>
<polygon fill="none" stroke="blue" points="1067,-1557 1013,-1557 1013,-1534 1067,-1534 1067,-1557"/>
<text text-anchor="middle" x="1040" y="-1541.8" font-family="Times,serif" font-size="14.00">IDLE</text>
</g>
<!-- n1 -->
<g id="node2" class="node">
<title>n1</title>
<polygon fill="none" stroke="black" points="1298,-1498 782,-1498 782,-1475 1298,-1475 1298,-1498"/>
<text text-anchor="middle" x="1040" y="-1482.8" font-family="Times,serif" font-size="14.00">RX / Connection REQ / AoA Constant Tone Extension / CONNECT_IND</text>
</g>
<!-- n0&#45;&gt;n1 -->
<g id="edge1" class="edge">
<title>n0&#45;&gt;n1</title>
<path fill="none" stroke="black" d="M1040,-1533.78C1040,-1526.61 1040,-1516.95 1040,-1508.31"/>
<polygon fill="black" stroke="black" points="1043.5,-1508.17 1040,-1498.17 1036.5,-1508.17 1043.5,-1508.17"/>
</g>
<!-- n1&#45;&gt;n1 -->
<g id="edge50" class="edge">
<title>n1&#45;&gt;n1</title>
<path fill="none" stroke="black" d="M1298.06,-1493.18C1309.4,-1491.47 1316,-1489.25 1316,-1486.5 1316,-1484.7 1313.16,-1483.12 1308,-1481.76"/>
<polygon fill="black" stroke="black" points="1308.55,-1478.31 1298.06,-1479.82 1307.21,-1485.18 1308.55,-1478.31"/>
</g>
<!-- n2 -->
<g id="node3" class="node">
<title>n2</title>
<polygon fill="none" stroke="black" points="973.5,-1439 698.5,-1439 698.5,-1416 973.5,-1416 973.5,-1439"/>
<text text-anchor="middle" x="836" y="-1423.8" font-family="Times,serif" font-size="14.00">TX / LL Ctrl IND / LL_VERSION_IND</text>
</g>
<!-- n1&#45;&gt;n2 -->
<g id="edge2" class="edge">
<title>n1&#45;&gt;n2</title>
<path fill="none" stroke="black" d="M1002.11,-1474.91C968.61,-1465.55 919.61,-1451.86 883.51,-1441.77"/>
<polygon fill="black" stroke="black" points="884.26,-1438.35 873.69,-1439.03 882.38,-1445.09 884.26,-1438.35"/>
</g>
<!-- n5 -->
<g id="node6" class="node">
<title>n5</title>
<polygon fill="none" stroke="black" points="967.5,-1262 626.5,-1262 626.5,-1239 967.5,-1239 967.5,-1262"/>
<text text-anchor="middle" x="797" y="-1246.8" font-family="Times,serif" font-size="14.00">RX / LL Ctrl REQ / LL_SLAVE_FEATURE_REQ</text>
</g>
<!-- n1&#45;&gt;n5 -->
<g id="edge36" class="edge">
<title>n1&#45;&gt;n5</title>
<path fill="none" stroke="black" d="M1037.4,-1474.78C1031.27,-1451.28 1014.05,-1394.35 983,-1357 944.91,-1311.18 881.47,-1281.34 839.44,-1265.46"/>
<polygon fill="black" stroke="black" points="840.62,-1262.17 830.03,-1262 838.21,-1268.74 840.62,-1262.17"/>
</g>
<!-- n6 -->
<g id="node7" class="node">
<title>n6</title>
<polygon fill="none" stroke="black" points="894,-1203 614,-1203 614,-1180 894,-1180 894,-1203"/>
<text text-anchor="middle" x="754" y="-1187.8" font-family="Times,serif" font-size="14.00">TX / LL Ctrl RSP / LL_FEATURE_RSP</text>
</g>
<!-- n1&#45;&gt;n6 -->
<g id="edge51" class="edge">
<title>n1&#45;&gt;n6</title>
<path fill="none" stroke="black" d="M848.44,-1474.98C621.84,-1459.91 275,-1427.39 275,-1369.5 275,-1369.5 275,-1369.5 275,-1308.5 275,-1239.83 463.33,-1211.67 603.81,-1200.21"/>
<polygon fill="black" stroke="black" points="604.15,-1203.7 613.84,-1199.42 603.6,-1196.72 604.15,-1203.7"/>
</g>
<!-- n3 -->
<g id="node4" class="node">
<title>n3</title>
<polygon fill="none" stroke="black" points="974,-1380 698,-1380 698,-1357 974,-1357 974,-1380"/>
<text text-anchor="middle" x="836" y="-1364.8" font-family="Times,serif" font-size="14.00">RX / LL Ctrl IND / LL_VERSION_IND</text>
</g>
<!-- n2&#45;&gt;n3 -->
<g id="edge3" class="edge">
<title>n2&#45;&gt;n3</title>
<path fill="none" stroke="black" d="M836,-1415.78C836,-1408.61 836,-1398.95 836,-1390.31"/>
<polygon fill="black" stroke="black" points="839.5,-1390.17 836,-1380.17 832.5,-1390.17 839.5,-1390.17"/>
</g>
<!-- n4 -->
<g id="node5" class="node">
<title>n4</title>
<polygon fill="none" stroke="black" points="872,-1321 588,-1321 588,-1298 872,-1298 872,-1321"/>
<text text-anchor="middle" x="730" y="-1305.8" font-family="Times,serif" font-size="14.00">TX / LL Ctrl REQ / LL_FEATURE_REQ</text>
</g>
<!-- n3&#45;&gt;n4 -->
<g id="edge4" class="edge">
<title>n3&#45;&gt;n4</title>
<path fill="none" stroke="black" d="M816.06,-1356.78C799.92,-1348.1 776.98,-1335.76 758.84,-1326.01"/>
<polygon fill="black" stroke="black" points="760.31,-1322.83 749.85,-1321.17 757,-1328.99 760.31,-1322.83"/>
</g>
<!-- n3&#45;&gt;n5 -->
<g id="edge34" class="edge">
<title>n3&#45;&gt;n5</title>
<path fill="none" stroke="black" d="M851.41,-1356.84C868.93,-1343.35 893.55,-1319.3 881,-1298 872.52,-1283.61 857.81,-1273.36 843.04,-1266.22"/>
<polygon fill="black" stroke="black" points="844.46,-1263.02 833.9,-1262.16 841.62,-1269.41 844.46,-1263.02"/>
</g>
<!-- n13 -->
<g id="node14" class="node">
<title>n13</title>
<polygon fill="none" stroke="black" points="974,-908 764,-908 764,-885 974,-885 974,-908"/>
<text text-anchor="middle" x="869" y="-892.8" font-family="Times,serif" font-size="14.00">TX / SMP / Pairing Request</text>
</g>
<!-- n3&#45;&gt;n13 -->
<g id="edge40" class="edge">
<title>n3&#45;&gt;n13</title>
<path fill="none" stroke="black" d="M906.78,-1356.94C965.7,-1343.67 1040,-1314.45 1040,-1251.5 1040,-1251.5 1040,-1251.5 1040,-1072.5 1040,-994.28 951.53,-938.05 901.86,-912.64"/>
<polygon fill="black" stroke="black" points="903.29,-909.44 892.78,-908.11 900.17,-915.7 903.29,-909.44"/>
</g>
<!-- n4&#45;&gt;n5 -->
<g id="edge5" class="edge">
<title>n4&#45;&gt;n5</title>
<path fill="none" stroke="black" d="M742.6,-1297.78C752.15,-1289.66 765.46,-1278.33 776.53,-1268.92"/>
<polygon fill="black" stroke="black" points="779.11,-1271.32 784.45,-1262.17 774.57,-1265.99 779.11,-1271.32"/>
</g>
<!-- n5&#45;&gt;n6 -->
<g id="edge6" class="edge">
<title>n5&#45;&gt;n6</title>
<path fill="none" stroke="black" d="M788.91,-1238.78C783.09,-1231.06 775.07,-1220.43 768.19,-1211.31"/>
<polygon fill="black" stroke="black" points="770.87,-1209.05 762.05,-1203.17 765.28,-1213.26 770.87,-1209.05"/>
</g>
<!-- n7 -->
<g id="node8" class="node">
<title>n7</title>
<polygon fill="none" stroke="black" points="917.5,-1144 636.5,-1144 636.5,-1121 917.5,-1121 917.5,-1144"/>
<text text-anchor="middle" x="777" y="-1128.8" font-family="Times,serif" font-size="14.00">RX / LL Ctrl RSP / LL_FEATURE_RSP</text>
</g>
<!-- n6&#45;&gt;n7 -->
<g id="edge7" class="edge">
<title>n6&#45;&gt;n7</title>
<path fill="none" stroke="black" d="M758.33,-1179.78C761.31,-1172.37 765.38,-1162.3 768.95,-1153.45"/>
<polygon fill="black" stroke="black" points="772.2,-1154.76 772.69,-1144.17 765.71,-1152.14 772.2,-1154.76"/>
</g>
<!-- n26 -->
<g id="node27" class="node">
<title>n26</title>
<polygon fill="none" stroke="black" points="618.5,-1144 341.5,-1144 341.5,-1121 618.5,-1121 618.5,-1144"/>
<text text-anchor="middle" x="480" y="-1128.8" font-family="Times,serif" font-size="14.00">TX / LL Ctrl REQ / LL_LENGTH_REQ</text>
</g>
<!-- n6&#45;&gt;n26 -->
<g id="edge37" class="edge">
<title>n6&#45;&gt;n26</title>
<path fill="none" stroke="black" d="M703.42,-1179.98C657.42,-1170.41 589.44,-1156.27 540.56,-1146.1"/>
<polygon fill="black" stroke="black" points="541.25,-1142.67 530.74,-1144.06 539.82,-1149.52 541.25,-1142.67"/>
</g>
<!-- n8 -->
<g id="node9" class="node">
<title>n8</title>
<polygon fill="none" stroke="black" points="965.5,-1085 588.5,-1085 588.5,-1062 965.5,-1062 965.5,-1085"/>
<text text-anchor="middle" x="777" y="-1069.8" font-family="Times,serif" font-size="14.00">TX / LL Ctrl REQ / LL_CONNECTION_PARAM_REQ</text>
</g>
<!-- n7&#45;&gt;n8 -->
<g id="edge8" class="edge">
<title>n7&#45;&gt;n8</title>
<path fill="none" stroke="black" d="M777,-1120.78C777,-1113.61 777,-1103.95 777,-1095.31"/>
<polygon fill="black" stroke="black" points="780.5,-1095.17 777,-1085.17 773.5,-1095.17 780.5,-1095.17"/>
</g>
<!-- n19 -->
<g id="node20" class="node">
<title>n19</title>
<polygon fill="none" stroke="black" points="818,-554 572,-554 572,-531 818,-531 818,-554"/>
<text text-anchor="middle" x="695" y="-538.8" font-family="Times,serif" font-size="14.00">TX / LL Ctrl REQ / LL_ENC_REQ</text>
</g>
<!-- n7&#45;&gt;n19 -->
<g id="edge35" class="edge">
<title>n7&#45;&gt;n19</title>
<path fill="none" stroke="black" d="M702.52,-1120.98C568.84,-1101.06 302,-1056.22 302,-1015.5 302,-1015.5 302,-1015.5 302,-659.5 302,-601.44 461.8,-570.25 577.6,-555.28"/>
<polygon fill="black" stroke="black" points="578.13,-558.74 587.61,-554.01 577.25,-551.8 578.13,-558.74"/>
</g>
<!-- n9 -->
<g id="node10" class="node">
<title>n9</title>
<polygon fill="none" stroke="black" points="898,-1026 524,-1026 524,-1003 898,-1003 898,-1026"/>
<text text-anchor="middle" x="711" y="-1010.8" font-family="Times,serif" font-size="14.00">RX / LL Ctrl RSP / LL_CONNECTION_PARAM_RSP</text>
</g>
<!-- n8&#45;&gt;n9 -->
<g id="edge9" class="edge">
<title>n8&#45;&gt;n9</title>
<path fill="none" stroke="black" d="M764.59,-1061.78C755.18,-1053.66 742.07,-1042.33 731.17,-1032.92"/>
<polygon fill="black" stroke="black" points="733.21,-1030.06 723.36,-1026.17 728.64,-1035.36 733.21,-1030.06"/>
</g>
<!-- n10 -->
<g id="node11" class="node">
<title>n10</title>
<polygon fill="none" stroke="black" points="708,-967 330,-967 330,-944 708,-944 708,-967"/>
<text text-anchor="middle" x="519" y="-951.8" font-family="Times,serif" font-size="14.00">TX / LL Ctrl IND / LL_CONNECTION_UPDATE_IND</text>
</g>
<!-- n8&#45;&gt;n10 -->
<g id="edge31" class="edge">
<title>n8&#45;&gt;n10</title>
<path fill="none" stroke="black" d="M615.35,-1061.97C566.24,-1055.21 521.21,-1044.15 506,-1026 494.6,-1012.4 497.59,-991.54 503.92,-976.22"/>
<polygon fill="black" stroke="black" points="507.14,-977.6 508.44,-967.08 500.87,-974.49 507.14,-977.6"/>
</g>
<!-- n14 -->
<g id="node15" class="node">
<title>n14</title>
<polygon fill="none" stroke="black" points="973.5,-849 752.5,-849 752.5,-826 973.5,-826 973.5,-849"/>
<text text-anchor="middle" x="863" y="-833.8" font-family="Times,serif" font-size="14.00">RX / SMP / Pairing Response</text>
</g>
<!-- n8&#45;&gt;n14 -->
<g id="edge16" class="edge">
<title>n8&#45;&gt;n14</title>
<path fill="none" stroke="black" d="M849.47,-1061.98C875.6,-1055.23 903.85,-1044.15 925,-1026 969.35,-987.94 969.77,-964.92 983,-908 985.31,-898.04 988.78,-893.43 983,-885 972.51,-869.68 956.18,-859.41 938.91,-852.52"/>
<polygon fill="black" stroke="black" points="939.85,-849.13 929.25,-849.03 937.47,-855.72 939.85,-849.13"/>
</g>
<!-- n9&#45;&gt;n10 -->
<g id="edge10" class="edge">
<title>n9&#45;&gt;n10</title>
<path fill="none" stroke="black" d="M675.34,-1002.91C643.95,-993.59 598.09,-979.98 564.15,-969.9"/>
<polygon fill="black" stroke="black" points="565.06,-966.52 554.47,-967.03 563.06,-973.23 565.06,-966.52"/>
</g>
<!-- n10&#45;&gt;n8 -->
<g id="edge11" class="edge">
<title>n10&#45;&gt;n8</title>
<path fill="none" stroke="black" d="M520.28,-967.08C517.6,-982.05 510.1,-1009.42 524,-1026 538.14,-1042.87 578.06,-1053.62 622.13,-1060.48"/>
<polygon fill="black" stroke="black" points="621.79,-1063.96 632.2,-1061.97 622.82,-1057.04 621.79,-1063.96"/>
</g>
<!-- n11 -->
<g id="node12" class="node">
<title>n11</title>
<polygon fill="none" stroke="black" points="690,-849 368,-849 368,-826 690,-826 690,-849"/>
<text text-anchor="middle" x="529" y="-833.8" font-family="Times,serif" font-size="14.00">TX / LL Ctrl IND / LL_CHANNEL_MAP_IND</text>
</g>
<!-- n10&#45;&gt;n11 -->
<g id="edge12" class="edge">
<title>n10&#45;&gt;n11</title>
<path fill="none" stroke="black" d="M519.92,-943.79C521.57,-924.63 525.06,-884.15 527.2,-859.34"/>
<polygon fill="black" stroke="black" points="530.71,-859.44 528.08,-849.18 523.73,-858.84 530.71,-859.44"/>
</g>
<!-- n12 -->
<g id="node13" class="node">
<title>n12</title>
<polygon fill="none" stroke="black" points="919,-23 623,-23 623,0 919,0 919,-23"/>
<text text-anchor="middle" x="771" y="-7.8" font-family="Times,serif" font-size="14.00">TX / LL Ctrl IND / LL_TERMINATE_IND</text>
</g>
<!-- n10&#45;&gt;n12 -->
<g id="edge32" class="edge">
<title>n10&#45;&gt;n12</title>
<path fill="none" stroke="black" d="M466.74,-943.98C413.91,-929.94 340,-899.42 340,-838.5 340,-838.5 340,-838.5 340,-128.5 340,-68.1 499.85,-38.24 624.85,-24.13"/>
<polygon fill="black" stroke="black" points="625.37,-27.59 634.92,-23.02 624.6,-20.64 625.37,-27.59"/>
</g>
<!-- n10&#45;&gt;n13 -->
<g id="edge14" class="edge">
<title>n10&#45;&gt;n13</title>
<path fill="none" stroke="black" d="M583.6,-943.98C643.2,-934.27 731.66,-919.87 794.27,-909.67"/>
<polygon fill="black" stroke="black" points="795.17,-913.07 804.48,-908.01 794.05,-906.16 795.17,-913.07"/>
</g>
<!-- n15 -->
<g id="node16" class="node">
<title>n15</title>
<polygon fill="none" stroke="black" points="917.5,-790 708.5,-790 708.5,-767 917.5,-767 917.5,-790"/>
<text text-anchor="middle" x="813" y="-774.8" font-family="Times,serif" font-size="14.00">TX / SMP / Pairing Confirm</text>
</g>
<!-- n10&#45;&gt;n15 -->
<g id="edge19" class="edge">
<title>n10&#45;&gt;n15</title>
<path fill="none" stroke="black" d="M537.2,-943.97C569.76,-925.11 640.08,-884.22 699,-849 729.39,-830.83 764.09,-809.61 787.15,-795.44"/>
<polygon fill="black" stroke="black" points="788.99,-798.41 795.67,-790.19 785.32,-792.45 788.99,-798.41"/>
</g>
<!-- n11&#45;&gt;n12 -->
<g id="edge13" class="edge">
<title>n11&#45;&gt;n12</title>
<path fill="none" stroke="black" d="M530.52,-825.97C533.32,-805.63 539,-759.51 539,-720.5 539,-720.5 539,-720.5 539,-128.5 539,-68.03 602.83,-39.08 663.52,-25.23"/>
<polygon fill="black" stroke="black" points="664.58,-28.58 673.62,-23.05 663.11,-21.74 664.58,-28.58"/>
</g>
<!-- n12&#45;&gt;n1 -->
<g id="edge33" class="edge">
<title>n12&#45;&gt;n1</title>
<path fill="none" stroke="black" d="M919.16,-18.53C970.05,-24.88 1026.19,-36.86 1074,-59 1116.74,-78.8 1154,-81.4 1154,-128.5 1154,-1369.5 1154,-1369.5 1154,-1369.5 1154,-1416.47 1105.86,-1451.38 1072.14,-1470.07"/>
<polygon fill="black" stroke="black" points="1070.25,-1467.12 1063.07,-1474.91 1073.54,-1473.29 1070.25,-1467.12"/>
</g>
<!-- n13&#45;&gt;n8 -->
<g id="edge15" class="edge">
<title>n13&#45;&gt;n8</title>
<path fill="none" stroke="black" d="M877.78,-908.15C895.91,-931.5 933.66,-988.15 907,-1026 896.29,-1041.21 880.12,-1051.47 862.78,-1058.39"/>
<polygon fill="black" stroke="black" points="861.28,-1055.21 853.06,-1061.9 863.66,-1061.8 861.28,-1055.21"/>
</g>
<!-- n13&#45;&gt;n14 -->
<g id="edge41" class="edge">
<title>n13&#45;&gt;n14</title>
<path fill="none" stroke="black" d="M867.87,-884.78C867.12,-877.61 866.1,-867.95 865.19,-859.31"/>
<polygon fill="black" stroke="black" points="868.65,-858.75 864.12,-849.17 861.69,-859.48 868.65,-858.75"/>
</g>
<!-- n14&#45;&gt;n9 -->
<g id="edge18" class="edge">
<title>n14&#45;&gt;n9</title>
<path fill="none" stroke="black" d="M816.95,-849.06C795.59,-856.07 771.37,-867.33 755,-885 726.84,-915.41 716.6,-964.64 712.96,-992.51"/>
<polygon fill="black" stroke="black" points="709.45,-992.38 711.79,-1002.71 716.4,-993.17 709.45,-992.38"/>
</g>
<!-- n14&#45;&gt;n14 -->
<g id="edge17" class="edge">
<title>n14&#45;&gt;n14</title>
<path fill="none" stroke="black" d="M973.58,-846.37C984.53,-844.59 991.5,-841.63 991.5,-837.5 991.5,-834.79 988.5,-832.58 983.34,-830.88"/>
<polygon fill="black" stroke="black" points="984.11,-827.47 973.58,-828.63 982.54,-834.29 984.11,-827.47"/>
</g>
<!-- n14&#45;&gt;n15 -->
<g id="edge42" class="edge">
<title>n14&#45;&gt;n15</title>
<path fill="none" stroke="black" d="M853.6,-825.78C846.68,-817.9 837.12,-806.99 829.01,-797.75"/>
<polygon fill="black" stroke="black" points="831.59,-795.38 822.36,-790.17 826.33,-800 831.59,-795.38"/>
</g>
<!-- n16 -->
<g id="node17" class="node">
<title>n16</title>
<polygon fill="none" stroke="black" points="918,-731 708,-731 708,-708 918,-708 918,-731"/>
<text text-anchor="middle" x="813" y="-715.8" font-family="Times,serif" font-size="14.00">RX / SMP / Pairing Confirm</text>
</g>
<!-- n15&#45;&gt;n16 -->
<g id="edge20" class="edge">
<title>n15&#45;&gt;n16</title>
<path fill="none" stroke="black" d="M813,-766.78C813,-759.61 813,-749.95 813,-741.31"/>
<polygon fill="black" stroke="black" points="816.5,-741.17 813,-731.17 809.5,-741.17 816.5,-741.17"/>
</g>
<!-- n17 -->
<g id="node18" class="node">
<title>n17</title>
<polygon fill="none" stroke="black" points="867,-672 657,-672 657,-649 867,-649 867,-672"/>
<text text-anchor="middle" x="762" y="-656.8" font-family="Times,serif" font-size="14.00">TX / SMP / Pairing Random</text>
</g>
<!-- n16&#45;&gt;n17 -->
<g id="edge21" class="edge">
<title>n16&#45;&gt;n17</title>
<path fill="none" stroke="black" d="M803.41,-707.78C796.36,-699.9 786.6,-688.99 778.33,-679.75"/>
<polygon fill="black" stroke="black" points="780.83,-677.29 771.55,-672.17 775.61,-681.96 780.83,-677.29"/>
</g>
<!-- n18 -->
<g id="node19" class="node">
<title>n18</title>
<polygon fill="none" stroke="black" points="921,-613 709,-613 709,-590 921,-590 921,-613"/>
<text text-anchor="middle" x="815" y="-597.8" font-family="Times,serif" font-size="14.00">RX / SMP / Pairing Random</text>
</g>
<!-- n16&#45;&gt;n18 -->
<g id="edge53" class="edge">
<title>n16&#45;&gt;n18</title>
<path fill="none" stroke="black" d="M836.69,-707.96C850.91,-700.24 867.79,-688.26 876,-672 886.52,-651.15 865.39,-631.55 845.18,-618.52"/>
<polygon fill="black" stroke="black" points="846.74,-615.37 836.37,-613.18 843.11,-621.36 846.74,-615.37"/>
</g>
<!-- n17&#45;&gt;n18 -->
<g id="edge22" class="edge">
<title>n17&#45;&gt;n18</title>
<path fill="none" stroke="black" d="M771.97,-648.78C779.3,-640.9 789.43,-629.99 798.03,-620.75"/>
<polygon fill="black" stroke="black" points="800.83,-622.88 805.08,-613.17 795.7,-618.11 800.83,-622.88"/>
</g>
<!-- n18&#45;&gt;n19 -->
<g id="edge23" class="edge">
<title>n18&#45;&gt;n19</title>
<path fill="none" stroke="black" d="M792.71,-589.91C774.02,-581.03 747.12,-568.26 726.27,-558.35"/>
<polygon fill="black" stroke="black" points="727.7,-555.16 717.17,-554.03 724.7,-561.48 727.7,-555.16"/>
</g>
<!-- n20 -->
<g id="node21" class="node">
<title>n20</title>
<polygon fill="none" stroke="black" points="967.5,-495 724.5,-495 724.5,-472 967.5,-472 967.5,-495"/>
<text text-anchor="middle" x="846" y="-479.8" font-family="Times,serif" font-size="14.00">RX / LL Ctrl RSP / LL_ENC_RSP</text>
</g>
<!-- n18&#45;&gt;n20 -->
<g id="edge48" class="edge">
<title>n18&#45;&gt;n20</title>
<path fill="none" stroke="black" d="M817.86,-589.79C823.01,-570.55 833.9,-529.79 840.52,-505.01"/>
<polygon fill="black" stroke="black" points="843.95,-505.74 843.15,-495.18 837.18,-503.94 843.95,-505.74"/>
</g>
<!-- n19&#45;&gt;n20 -->
<g id="edge24" class="edge">
<title>n19&#45;&gt;n20</title>
<path fill="none" stroke="black" d="M723.05,-530.91C747.1,-521.83 781.95,-508.68 808.41,-498.69"/>
<polygon fill="black" stroke="black" points="809.98,-501.84 818.1,-495.03 807.51,-495.29 809.98,-501.84"/>
</g>
<!-- n21 -->
<g id="node22" class="node">
<title>n21</title>
<polygon fill="none" stroke="black" points="1000,-436 698,-436 698,-413 1000,-413 1000,-436"/>
<text text-anchor="middle" x="849" y="-420.8" font-family="Times,serif" font-size="14.00">RX / LL Ctrl REQ / LL_START_ENC_REQ</text>
</g>
<!-- n20&#45;&gt;n21 -->
<g id="edge25" class="edge">
<title>n20&#45;&gt;n21</title>
<path fill="none" stroke="black" d="M846.56,-471.78C846.94,-464.61 847.45,-454.95 847.9,-446.31"/>
<polygon fill="black" stroke="black" points="851.41,-446.34 848.44,-436.17 844.42,-445.98 851.41,-446.34"/>
</g>
<!-- n21&#45;&gt;n1 -->
<g id="edge49" class="edge">
<title>n21&#45;&gt;n1</title>
<path fill="none" stroke="black" d="M888.89,-436.07C954.5,-456.15 1078,-506.43 1078,-600.5 1078,-1369.5 1078,-1369.5 1078,-1369.5 1078,-1404.76 1061.95,-1443.18 1050.71,-1465.77"/>
<polygon fill="black" stroke="black" points="1047.58,-1464.2 1046.11,-1474.69 1053.8,-1467.41 1047.58,-1464.2"/>
</g>
<!-- n22 -->
<g id="node23" class="node">
<title>n22</title>
<polygon fill="none" stroke="black" points="997,-377 701,-377 701,-354 997,-354 997,-377"/>
<text text-anchor="middle" x="849" y="-361.8" font-family="Times,serif" font-size="14.00">TX / LL Ctrl RSP / LL_START_ENC_RSP</text>
</g>
<!-- n21&#45;&gt;n22 -->
<g id="edge26" class="edge">
<title>n21&#45;&gt;n22</title>
<path fill="none" stroke="black" d="M849,-412.78C849,-405.61 849,-395.95 849,-387.31"/>
<polygon fill="black" stroke="black" points="852.5,-387.17 849,-377.17 845.5,-387.17 852.5,-387.17"/>
</g>
<!-- n23 -->
<g id="node24" class="node">
<title>n23</title>
<polygon fill="none" stroke="black" points="962,-200 714,-200 714,-177 962,-177 962,-200"/>
<text text-anchor="middle" x="838" y="-184.8" font-family="Times,serif" font-size="14.00">RX / SMP / Master Identification</text>
</g>
<!-- n22&#45;&gt;n23 -->
<g id="edge27" class="edge">
<title>n22&#45;&gt;n23</title>
<path fill="none" stroke="black" d="M749.84,-353.95C728.88,-346.93 709.14,-335.73 696,-318 674.3,-288.72 674.61,-265.51 696,-236 706.98,-220.85 723.05,-210.54 740.47,-203.56"/>
<polygon fill="black" stroke="black" points="742.05,-206.7 750.26,-200.01 739.66,-200.12 742.05,-206.7"/>
</g>
<!-- n28 -->
<g id="node29" class="node">
<title>n28</title>
<polygon fill="none" stroke="black" points="1002.5,-318 705.5,-318 705.5,-295 1002.5,-295 1002.5,-318"/>
<text text-anchor="middle" x="854" y="-302.8" font-family="Times,serif" font-size="14.00">RX / LL Ctrl RSP / LL_START_ENC_RSP</text>
</g>
<!-- n22&#45;&gt;n28 -->
<g id="edge43" class="edge">
<title>n22&#45;&gt;n28</title>
<path fill="none" stroke="black" d="M849.94,-353.78C850.57,-346.61 851.42,-336.95 852.17,-328.31"/>
<polygon fill="black" stroke="black" points="855.68,-328.44 853.06,-318.17 848.7,-327.83 855.68,-328.44"/>
</g>
<!-- n24 -->
<g id="node25" class="node">
<title>n24</title>
<polygon fill="none" stroke="black" points="1011.5,-141 748.5,-141 748.5,-118 1011.5,-118 1011.5,-141"/>
<text text-anchor="middle" x="880" y="-125.8" font-family="Times,serif" font-size="14.00">TX / SMP / Encryption Information</text>
</g>
<!-- n23&#45;&gt;n24 -->
<g id="edge28" class="edge">
<title>n23&#45;&gt;n24</title>
<path fill="none" stroke="black" d="M845.9,-176.78C851.59,-169.06 859.42,-158.43 866.14,-149.31"/>
<polygon fill="black" stroke="black" points="869.02,-151.3 872.14,-141.17 863.39,-147.15 869.02,-151.3"/>
</g>
<!-- n25 -->
<g id="node26" class="node">
<title>n25</title>
<polygon fill="none" stroke="black" points="1065,-82 819,-82 819,-59 1065,-59 1065,-82"/>
<text text-anchor="middle" x="942" y="-66.8" font-family="Times,serif" font-size="14.00">TX / SMP / Master Identification</text>
</g>
<!-- n24&#45;&gt;n25 -->
<g id="edge29" class="edge">
<title>n24&#45;&gt;n25</title>
<path fill="none" stroke="black" d="M891.66,-117.78C900.41,-109.74 912.57,-98.55 922.75,-89.19"/>
<polygon fill="black" stroke="black" points="925.4,-91.52 930.39,-82.17 920.66,-86.36 925.4,-91.52"/>
</g>
<!-- n25&#45;&gt;n1 -->
<g id="edge46" class="edge">
<title>n25&#45;&gt;n1</title>
<path fill="none" stroke="black" d="M991.4,-82.08C1042.84,-96.35 1116,-127.23 1116,-187.5 1116,-1369.5 1116,-1369.5 1116,-1369.5 1116,-1409.99 1083.2,-1447.34 1060.7,-1468.21"/>
<polygon fill="black" stroke="black" points="1058.36,-1465.6 1053.24,-1474.88 1063.03,-1470.82 1058.36,-1465.6"/>
</g>
<!-- n25&#45;&gt;n8 -->
<g id="edge30" class="edge">
<title>n25&#45;&gt;n8</title>
<path fill="none" stroke="black" d="M971.05,-82.09C987.95,-89.65 1008.34,-101.44 1021,-118 1040.45,-143.44 1040,-155.48 1040,-187.5 1040,-897.5 1040,-897.5 1040,-897.5 1040,-967.23 1007.1,-985.99 950,-1026 926.98,-1042.13 898.64,-1052.67 871.61,-1059.55"/>
<polygon fill="black" stroke="black" points="870.64,-1056.19 861.73,-1061.93 872.27,-1063 870.64,-1056.19"/>
</g>
<!-- n25&#45;&gt;n12 -->
<g id="edge47" class="edge">
<title>n25&#45;&gt;n12</title>
<path fill="none" stroke="black" d="M910.24,-58.91C882.64,-49.71 842.49,-36.33 812.38,-26.29"/>
<polygon fill="black" stroke="black" points="813.19,-22.87 802.59,-23.03 810.97,-29.51 813.19,-22.87"/>
</g>
<!-- n27 -->
<g id="node28" class="node">
<title>n27</title>
<polygon fill="none" stroke="black" points="274,-1085 0,-1085 0,-1062 274,-1062 274,-1085"/>
<text text-anchor="middle" x="137" y="-1069.8" font-family="Times,serif" font-size="14.00">RX / LL Ctrl RSP / LL_LENGTH_RSP</text>
</g>
<!-- n26&#45;&gt;n27 -->
<g id="edge38" class="edge">
<title>n26&#45;&gt;n27</title>
<path fill="none" stroke="black" d="M416.69,-1120.98C358.29,-1111.27 271.6,-1096.87 210.24,-1086.67"/>
<polygon fill="black" stroke="black" points="210.67,-1083.19 200.23,-1085.01 209.52,-1090.1 210.67,-1083.19"/>
</g>
<!-- n27&#45;&gt;n2 -->
<g id="edge39" class="edge">
<title>n27&#45;&gt;n2</title>
<path fill="none" stroke="black" d="M187.43,-1085.03C239.44,-1099.2 313,-1129.93 313,-1190.5 313,-1310.5 313,-1310.5 313,-1310.5 313,-1387.8 533.5,-1413.62 688.16,-1422.23"/>
<polygon fill="black" stroke="black" points="688.07,-1425.73 698.25,-1422.77 688.45,-1418.74 688.07,-1425.73"/>
</g>
<!-- n28&#45;&gt;n24 -->
<g id="edge52" class="edge">
<title>n28&#45;&gt;n24</title>
<path fill="none" stroke="black" d="M926.13,-294.92C946.94,-288.15 967.4,-277.08 980,-259 990.71,-243.63 985.25,-196.76 971,-177 960.5,-162.45 944.09,-152.13 928.08,-144.98"/>
<polygon fill="black" stroke="black" points="929.33,-141.71 918.75,-141.13 926.66,-148.18 929.33,-141.71"/>
</g>
<!-- n29 -->
<g id="node30" class="node">
<title>n29</title>
<polygon fill="none" stroke="black" points="970.5,-259 705.5,-259 705.5,-236 970.5,-236 970.5,-259"/>
<text text-anchor="middle" x="838" y="-243.8" font-family="Times,serif" font-size="14.00">RX / SMP / Encryption Information</text>
</g>
<!-- n28&#45;&gt;n29 -->
<g id="edge44" class="edge">
<title>n28&#45;&gt;n29</title>
<path fill="none" stroke="black" d="M850.99,-294.78C848.96,-287.53 846.21,-277.74 843.76,-269.02"/>
<polygon fill="black" stroke="black" points="847.07,-267.86 841,-259.17 840.33,-269.75 847.07,-267.86"/>
</g>
<!-- n29&#45;&gt;n23 -->
<g id="edge45" class="edge">
<title>n29&#45;&gt;n23</title>
<path fill="none" stroke="black" d="M838,-235.78C838,-228.61 838,-218.95 838,-210.31"/>
<polygon fill="black" stroke="black" points="841.5,-210.17 838,-200.17 834.5,-210.17 841.5,-210.17"/>
</g>
</g>
</svg>
