<?xml version="1.0" encoding="UTF-8" standalone="no"?>
<!DOCTYPE svg PUBLIC "-//W3C//DTD SVG 1.1//EN"
 "http://www.w3.org/Graphics/SVG/1.1/DTD/svg11.dtd">
<!-- Generated by graphviz version 2.43.0 (0)
 -->
<!-- Title: %3 Pages: 1 -->
<svg width="678pt" height="1034pt"
 viewBox="0.00 0.00 678.00 1034.00" xmlns="http://www.w3.org/2000/svg" xmlns:xlink="http://www.w3.org/1999/xlink">
<g id="graph0" class="graph" transform="scale(1 1) rotate(0) translate(4 1030)">
<title>%3</title>
<polygon fill="white" stroke="transparent" points="-4,4 -4,-1030 674,-1030 674,4 -4,4"/>
<!-- n0 -->
<g id="node1" class="node">
<title>n0</title>
<polygon fill="none" stroke="blue" points="421,-1026 367,-1026 367,-1003 421,-1003 421,-1026"/>
<text text-anchor="middle" x="394" y="-1010.8" font-family="Times,serif" font-size="14.00">IDLE</text>
</g>
<!-- n1 -->
<g id="node2" class="node">
<title>n1</title>
<polygon fill="none" stroke="black" points="652,-967 136,-967 136,-944 652,-944 652,-967"/>
<text text-anchor="middle" x="394" y="-951.8" font-family="Times,serif" font-size="14.00">RX / Connection REQ / AoA Constant Tone Extension / CONNECT_IND</text>
</g>
<!-- n0&#45;&gt;n1 -->
<g id="edge1" class="edge">
<title>n0&#45;&gt;n1</title>
<path fill="none" stroke="black" d="M394,-1002.78C394,-995.61 394,-985.95 394,-977.31"/>
<polygon fill="black" stroke="black" points="397.5,-977.17 394,-967.17 390.5,-977.17 397.5,-977.17"/>
</g>
<!-- n1&#45;&gt;n1 -->
<g id="edge26" class="edge">
<title>n1&#45;&gt;n1</title>
<path fill="none" stroke="black" d="M652.06,-962.18C663.4,-960.47 670,-958.25 670,-955.5 670,-953.7 667.16,-952.12 662,-950.76"/>
<polygon fill="black" stroke="black" points="662.55,-947.31 652.06,-948.82 661.21,-954.18 662.55,-947.31"/>
</g>
<!-- n2 -->
<g id="node3" class="node">
<title>n2</title>
<polygon fill="none" stroke="black" points="296,-23 0,-23 0,0 296,0 296,-23"/>
<text text-anchor="middle" x="148" y="-7.8" font-family="Times,serif" font-size="14.00">TX / LL Ctrl IND / LL_TERMINATE_IND</text>
</g>
<!-- n1&#45;&gt;n2 -->
<g id="edge2" class="edge">
<title>n1&#45;&gt;n2</title>
<path fill="none" stroke="black" d="M273.4,-943.98C207.41,-931.02 139,-902.24 139,-838.5 139,-838.5 139,-838.5 139,-128.5 139,-95.1 139,-56.29 141.45,-33.09"/>
<polygon fill="black" stroke="black" points="144.93,-33.45 142.86,-23.06 138,-32.47 144.93,-33.45"/>
</g>
<!-- n3 -->
<g id="node4" class="node">
<title>n3</title>
<polygon fill="none" stroke="black" points="421,-908 211,-908 211,-885 421,-885 421,-908"/>
<text text-anchor="middle" x="316" y="-892.8" font-family="Times,serif" font-size="14.00">TX / SMP / Pairing Request</text>
</g>
<!-- n1&#45;&gt;n3 -->
<g id="edge3" class="edge">
<title>n1&#45;&gt;n3</title>
<path fill="none" stroke="black" d="M379.33,-943.78C367.89,-935.42 351.8,-923.66 338.7,-914.09"/>
<polygon fill="black" stroke="black" points="340.74,-911.25 330.61,-908.17 336.61,-916.9 340.74,-911.25"/>
</g>
<!-- n9 -->
<g id="node10" class="node">
<title>n9</title>
<polygon fill="none" stroke="black" points="480,-554 234,-554 234,-531 480,-531 480,-554"/>
<text text-anchor="middle" x="357" y="-538.8" font-family="Times,serif" font-size="14.00">TX / LL Ctrl REQ / LL_ENC_REQ</text>
</g>
<!-- n1&#45;&gt;n9 -->
<g id="edge19" class="edge">
<title>n1&#45;&gt;n9</title>
<path fill="none" stroke="black" d="M405.37,-943.85C424.48,-924.73 461,-882.46 461,-838.5 461,-838.5 461,-838.5 461,-659.5 461,-614.2 416.49,-578.53 385.71,-559.27"/>
<polygon fill="black" stroke="black" points="387.42,-556.22 377.05,-554.06 383.81,-562.21 387.42,-556.22"/>
</g>
<!-- n2&#45;&gt;n1 -->
<g id="edge18" class="edge">
<title>n2&#45;&gt;n1</title>
<path fill="none" stroke="black" d="M153.14,-23.06C157,-43.44 157,-89.63 157,-128.5 157,-838.5 157,-838.5 157,-838.5 157,-898.88 218.39,-927.89 278.71,-941.79"/>
<polygon fill="black" stroke="black" points="278.24,-945.27 288.76,-943.98 279.73,-938.43 278.24,-945.27"/>
</g>
<!-- n4 -->
<g id="node5" class="node">
<title>n4</title>
<polygon fill="none" stroke="black" points="414.5,-849 193.5,-849 193.5,-826 414.5,-826 414.5,-849"/>
<text text-anchor="middle" x="304" y="-833.8" font-family="Times,serif" font-size="14.00">RX / SMP / Pairing Response</text>
</g>
<!-- n3&#45;&gt;n4 -->
<g id="edge4" class="edge">
<title>n3&#45;&gt;n4</title>
<path fill="none" stroke="black" d="M313.74,-884.78C312.22,-877.53 310.16,-867.74 308.32,-859.02"/>
<polygon fill="black" stroke="black" points="311.73,-858.24 306.25,-849.17 304.88,-859.68 311.73,-858.24"/>
</g>
<!-- n4&#45;&gt;n4 -->
<g id="edge5" class="edge">
<title>n4&#45;&gt;n4</title>
<path fill="none" stroke="black" d="M414.58,-846.37C425.53,-844.59 432.5,-841.63 432.5,-837.5 432.5,-834.79 429.5,-832.58 424.34,-830.88"/>
<polygon fill="black" stroke="black" points="425.11,-827.47 414.58,-828.63 423.54,-834.29 425.11,-827.47"/>
</g>
<!-- n5 -->
<g id="node6" class="node">
<title>n5</title>
<polygon fill="none" stroke="black" points="408.5,-790 199.5,-790 199.5,-767 408.5,-767 408.5,-790"/>
<text text-anchor="middle" x="304" y="-774.8" font-family="Times,serif" font-size="14.00">TX / SMP / Pairing Confirm</text>
</g>
<!-- n4&#45;&gt;n5 -->
<g id="edge6" class="edge">
<title>n4&#45;&gt;n5</title>
<path fill="none" stroke="black" d="M304,-825.78C304,-818.61 304,-808.95 304,-800.31"/>
<polygon fill="black" stroke="black" points="307.5,-800.17 304,-790.17 300.5,-800.17 307.5,-800.17"/>
</g>
<!-- n6 -->
<g id="node7" class="node">
<title>n6</title>
<polygon fill="none" stroke="black" points="409,-731 199,-731 199,-708 409,-708 409,-731"/>
<text text-anchor="middle" x="304" y="-715.8" font-family="Times,serif" font-size="14.00">RX / SMP / Pairing Confirm</text>
</g>
<!-- n5&#45;&gt;n6 -->
<g id="edge7" class="edge">
<title>n5&#45;&gt;n6</title>
<path fill="none" stroke="black" d="M304,-766.78C304,-759.61 304,-749.95 304,-741.31"/>
<polygon fill="black" stroke="black" points="307.5,-741.17 304,-731.17 300.5,-741.17 307.5,-741.17"/>
</g>
<!-- n7 -->
<g id="node8" class="node">
<title>n7</title>
<polygon fill="none" stroke="black" points="395,-672 185,-672 185,-649 395,-649 395,-672"/>
<text text-anchor="middle" x="290" y="-656.8" font-family="Times,serif" font-size="14.00">TX / SMP / Pairing Random</text>
</g>
<!-- n6&#45;&gt;n7 -->
<g id="edge8" class="edge">
<title>n6&#45;&gt;n7</title>
<path fill="none" stroke="black" d="M301.37,-707.78C299.59,-700.53 297.18,-690.74 295.04,-682.02"/>
<polygon fill="black" stroke="black" points="298.41,-681.05 292.62,-672.17 291.61,-682.72 298.41,-681.05"/>
</g>
<!-- n8 -->
<g id="node9" class="node">
<title>n8</title>
<polygon fill="none" stroke="black" points="415,-613 203,-613 203,-590 415,-590 415,-613"/>
<text text-anchor="middle" x="309" y="-597.8" font-family="Times,serif" font-size="14.00">RX / SMP / Pairing Random</text>
</g>
<!-- n6&#45;&gt;n8 -->
<g id="edge28" class="edge">
<title>n6&#45;&gt;n8</title>
<path fill="none" stroke="black" d="M352.64,-707.98C372.07,-701.14 392.52,-690 404,-672 419.83,-647.17 387.75,-628.28 356.67,-616.5"/>
<polygon fill="black" stroke="black" points="357.7,-613.15 347.11,-613.07 355.34,-619.74 357.7,-613.15"/>
</g>
<!-- n7&#45;&gt;n8 -->
<g id="edge9" class="edge">
<title>n7&#45;&gt;n8</title>
<path fill="none" stroke="black" d="M293.57,-648.78C296.02,-641.45 299.33,-631.52 302.25,-622.74"/>
<polygon fill="black" stroke="black" points="305.6,-623.77 305.44,-613.17 298.96,-621.55 305.6,-623.77"/>
</g>
<!-- n8&#45;&gt;n9 -->
<g id="edge10" class="edge">
<title>n8&#45;&gt;n9</title>
<path fill="none" stroke="black" d="M318.03,-589.78C324.6,-581.98 333.66,-571.21 341.39,-562.03"/>
<polygon fill="black" stroke="black" points="344.25,-564.08 348.01,-554.17 338.89,-559.57 344.25,-564.08"/>
</g>
<!-- n10 -->
<g id="node11" class="node">
<title>n10</title>
<polygon fill="none" stroke="black" points="478.5,-495 235.5,-495 235.5,-472 478.5,-472 478.5,-495"/>
<text text-anchor="middle" x="357" y="-479.8" font-family="Times,serif" font-size="14.00">RX / LL Ctrl RSP / LL_ENC_RSP</text>
</g>
<!-- n8&#45;&gt;n10 -->
<g id="edge24" class="edge">
<title>n8&#45;&gt;n10</title>
<path fill="none" stroke="black" d="M277.58,-589.95C246.82,-577.86 207.01,-556.41 225,-531 235.78,-515.77 251.97,-505.5 269.35,-498.57"/>
<polygon fill="black" stroke="black" points="270.88,-501.74 279.1,-495.06 268.51,-495.16 270.88,-501.74"/>
</g>
<!-- n9&#45;&gt;n10 -->
<g id="edge11" class="edge">
<title>n9&#45;&gt;n10</title>
<path fill="none" stroke="black" d="M357,-530.78C357,-523.61 357,-513.95 357,-505.31"/>
<polygon fill="black" stroke="black" points="360.5,-505.17 357,-495.17 353.5,-505.17 360.5,-505.17"/>
</g>
<!-- n11 -->
<g id="node12" class="node">
<title>n11</title>
<polygon fill="none" stroke="black" points="516,-436 214,-436 214,-413 516,-413 516,-436"/>
<text text-anchor="middle" x="365" y="-420.8" font-family="Times,serif" font-size="14.00">RX / LL Ctrl REQ / LL_START_ENC_REQ</text>
</g>
<!-- n10&#45;&gt;n11 -->
<g id="edge12" class="edge">
<title>n10&#45;&gt;n11</title>
<path fill="none" stroke="black" d="M358.5,-471.78C359.51,-464.61 360.87,-454.95 362.08,-446.31"/>
<polygon fill="black" stroke="black" points="365.58,-446.56 363.5,-436.17 358.65,-445.59 365.58,-446.56"/>
</g>
<!-- n11&#45;&gt;n1 -->
<g id="edge25" class="edge">
<title>n11&#45;&gt;n1</title>
<path fill="none" stroke="black" d="M422.82,-436.01C445.54,-442.81 470.16,-453.92 487,-472 509,-495.61 508,-509.23 508,-541.5 508,-838.5 508,-838.5 508,-838.5 508,-885.47 459.86,-920.38 426.14,-939.07"/>
<polygon fill="black" stroke="black" points="424.25,-936.12 417.07,-943.91 427.54,-942.29 424.25,-936.12"/>
</g>
<!-- n12 -->
<g id="node13" class="node">
<title>n12</title>
<polygon fill="none" stroke="black" points="513,-377 217,-377 217,-354 513,-354 513,-377"/>
<text text-anchor="middle" x="365" y="-361.8" font-family="Times,serif" font-size="14.00">TX / LL Ctrl RSP / LL_START_ENC_RSP</text>
</g>
<!-- n11&#45;&gt;n12 -->
<g id="edge13" class="edge">
<title>n11&#45;&gt;n12</title>
<path fill="none" stroke="black" d="M365,-412.78C365,-405.61 365,-395.95 365,-387.31"/>
<polygon fill="black" stroke="black" points="368.5,-387.17 365,-377.17 361.5,-387.17 368.5,-387.17"/>
</g>
<!-- n13 -->
<g id="node14" class="node">
<title>n13</title>
<polygon fill="none" stroke="black" points="480,-200 232,-200 232,-177 480,-177 480,-200"/>
<text text-anchor="middle" x="356" y="-184.8" font-family="Times,serif" font-size="14.00">RX / SMP / Master Identification</text>
</g>
<!-- n12&#45;&gt;n13 -->
<g id="edge14" class="edge">
<title>n12&#45;&gt;n13</title>
<path fill="none" stroke="black" d="M267.9,-353.95C246.91,-346.95 227.12,-335.76 214,-318 192.35,-288.68 192.61,-265.51 214,-236 224.98,-220.85 241.05,-210.54 258.47,-203.56"/>
<polygon fill="black" stroke="black" points="260.05,-206.7 268.26,-200.01 257.66,-200.12 260.05,-206.7"/>
</g>
<!-- n16 -->
<g id="node17" class="node">
<title>n16</title>
<polygon fill="none" stroke="black" points="520.5,-318 223.5,-318 223.5,-295 520.5,-295 520.5,-318"/>
<text text-anchor="middle" x="372" y="-302.8" font-family="Times,serif" font-size="14.00">RX / LL Ctrl RSP / LL_START_ENC_RSP</text>
</g>
<!-- n12&#45;&gt;n16 -->
<g id="edge20" class="edge">
<title>n12&#45;&gt;n16</title>
<path fill="none" stroke="black" d="M366.32,-353.78C367.2,-346.61 368.38,-336.95 369.44,-328.31"/>
<polygon fill="black" stroke="black" points="372.94,-328.53 370.69,-318.17 366,-327.67 372.94,-328.53"/>
</g>
<!-- n14 -->
<g id="node15" class="node">
<title>n14</title>
<polygon fill="none" stroke="black" points="506.5,-141 243.5,-141 243.5,-118 506.5,-118 506.5,-141"/>
<text text-anchor="middle" x="375" y="-125.8" font-family="Times,serif" font-size="14.00">TX / SMP / Encryption Information</text>
</g>
<!-- n13&#45;&gt;n14 -->
<g id="edge15" class="edge">
<title>n13&#45;&gt;n14</title>
<path fill="none" stroke="black" d="M359.57,-176.78C362.02,-169.45 365.33,-159.52 368.25,-150.74"/>
<polygon fill="black" stroke="black" points="371.6,-151.77 371.44,-141.17 364.96,-149.55 371.6,-151.77"/>
</g>
<!-- n15 -->
<g id="node16" class="node">
<title>n15</title>
<polygon fill="none" stroke="black" points="498,-82 252,-82 252,-59 498,-59 498,-82"/>
<text text-anchor="middle" x="375" y="-66.8" font-family="Times,serif" font-size="14.00">TX / SMP / Master Identification</text>
</g>
<!-- n14&#45;&gt;n15 -->
<g id="edge16" class="edge">
<title>n14&#45;&gt;n15</title>
<path fill="none" stroke="black" d="M375,-117.78C375,-110.61 375,-100.95 375,-92.31"/>
<polygon fill="black" stroke="black" points="378.5,-92.17 375,-82.17 371.5,-92.17 378.5,-92.17"/>
</g>
<!-- n15&#45;&gt;n1 -->
<g id="edge23" class="edge">
<title>n15&#45;&gt;n1</title>
<path fill="none" stroke="black" d="M437.67,-82.05C463.73,-88.89 492.98,-100.02 515,-118 542.61,-140.54 555,-151.86 555,-187.5 555,-838.5 555,-838.5 555,-838.5 555,-893.34 492.75,-924.83 445.67,-940.8"/>
<polygon fill="black" stroke="black" points="444.31,-937.57 435.88,-943.98 446.47,-944.22 444.31,-937.57"/>
</g>
<!-- n15&#45;&gt;n2 -->
<g id="edge17" class="edge">
<title>n15&#45;&gt;n2</title>
<path fill="none" stroke="black" d="M333.1,-58.98C295.55,-49.55 240.31,-35.68 199.96,-25.55"/>
<polygon fill="black" stroke="black" points="200.59,-22.1 190.04,-23.06 198.89,-28.89 200.59,-22.1"/>
</g>
<!-- n16&#45;&gt;n14 -->
<g id="edge27" class="edge">
<title>n16&#45;&gt;n14</title>
<path fill="none" stroke="black" d="M442.91,-295C463.78,-288.24 484.38,-277.16 497,-259 507.56,-243.8 504.3,-196.75 489,-177 477.07,-161.6 459.19,-151.28 441.11,-144.36"/>
<polygon fill="black" stroke="black" points="442.26,-141.06 431.67,-141.05 439.94,-147.66 442.26,-141.06"/>
</g>
<!-- n17 -->
<g id="node18" class="node">
<title>n17</title>
<polygon fill="none" stroke="black" points="488.5,-259 223.5,-259 223.5,-236 488.5,-236 488.5,-259"/>
<text text-anchor="middle" x="356" y="-243.8" font-family="Times,serif" font-size="14.00">RX / SMP / Encryption Information</text>
</g>
<!-- n16&#45;&gt;n17 -->
<g id="edge21" class="edge">
<title>n16&#45;&gt;n17</title>
<path fill="none" stroke="black" d="M368.99,-294.78C366.96,-287.53 364.21,-277.74 361.76,-269.02"/>
<polygon fill="black" stroke="black" points="365.07,-267.86 359,-259.17 358.33,-269.75 365.07,-267.86"/>
</g>
<!-- n17&#45;&gt;n13 -->
<g id="edge22" class="edge">
<title>n17&#45;&gt;n13</title>
<path fill="none" stroke="black" d="M356,-235.78C356,-228.61 356,-218.95 356,-210.31"/>
<polygon fill="black" stroke="black" points="359.5,-210.17 356,-200.17 352.5,-210.17 359.5,-210.17"/>
</g>
</g>
</svg>
